<svg width="183" height="56" viewBox="0 0 183 56" fill="none" xmlns="http://www.w3.org/2000/svg">
<path d="M44.4264 3.43671H6.89575C3.18785 3.43671 0.182007 6.44255 0.182007 10.1504V49.1262C0.182007 52.8341 3.18785 55.8399 6.89575 55.8399H44.4264C48.1343 55.8399 51.1402 52.8341 51.1402 49.1262V10.1504C51.1402 6.44255 48.1343 3.43671 44.4264 3.43671Z" fill="white"/>
<path d="M43.4965 8.5288L43.6785 3.79697C43.6785 3.79697 42.9505 0.521086 41.8585 0.521086C39.4926 0.521086 36.0347 -1.29884 32.0891 6.79258C28.1435 14.884 43.4965 8.5288 43.4965 8.5288Z" fill="white"/>
<path d="M15.6515 6.52691C15.6515 6.52691 14.0135 3.61502 12.9798 3.18916C11.8878 2.73599 7.09777 2.34107 6.38617 7.01102C5.5763 12.3125 14.0135 9.98479 15.6515 6.52691Z" fill="white"/>
<path d="M11.6475 3.33652C12.0167 3.4461 12.3671 3.61118 12.6867 3.82608C12.9214 3.98854 13.1462 4.16477 13.3601 4.35386C13.7302 4.68246 14.0746 5.03901 14.3902 5.42034C15.999 7.33491 17.2311 10.043 18.3649 12.5417C19.93 15.9996 21.1803 19.5995 22.2978 22.9863C23.5365 22.7552 24.794 22.6389 26.0541 22.6387C26.338 22.6387 26.6219 22.6387 26.9022 22.6569L27.0005 22.2748C28.4346 16.6475 30.0452 10.2122 32.8134 5.44218L32.8243 5.42034H15.453C15.1638 5.04567 14.8513 4.68947 14.5175 4.35386H33.4703C33.6869 4.01171 33.9162 3.66956 34.1619 3.33652H13.2582C12.1425 2.67952 10.3717 2.50481 9.16876 3.31468C9.97865 3.07424 10.842 3.08184 11.6475 3.33652Z" fill="#63BC47"/>
<path d="M45.6403 3.33655H44.0825C43.5911 1.26546 41.8985 -0.33608 39.1887 0.0606661C38.5195 0.158506 37.8756 0.384682 37.2923 0.726763C37.6567 0.583262 38.0366 0.482494 38.4243 0.426475C40.9813 0.0479284 42.621 1.442 43.2162 3.33837C43.3213 3.66953 43.3932 4.01032 43.4309 4.35571C43.4309 4.41941 43.4455 4.48493 43.4509 4.54863C43.4746 4.84163 43.4819 5.13282 43.4782 5.42219C43.4491 7.39136 42.8194 9.24406 42.2243 10.9093C40.4171 15.9796 37.8346 20.453 35.2412 24.8081C36.9147 25.6472 38.4627 26.7162 39.8402 27.9839L38.0821 29.3762L37.4743 29.8639C34.0195 26.8403 29.5051 25.3129 24.9241 25.6177C20.3432 25.9224 16.0709 28.0345 13.0471 31.4891C12.9725 31.5728 12.8997 31.6584 12.8269 31.7457C12.6649 31.9386 12.5066 32.1352 12.3519 32.3372L9.99326 30.4754C11.146 28.9818 12.5044 27.659 14.0281 26.5462C12.128 23.829 10.1643 20.7806 8.50819 17.2099C6.89755 13.752 5.28145 8.64348 6.91575 5.42219H5.59994C4.66785 5.42364 3.77435 5.79455 3.11527 6.45364C2.45618 7.11272 2.08527 8.00622 2.08383 8.93831V50.4001C2.08527 51.3321 2.45618 52.2256 3.11527 52.8847C3.77435 53.5438 4.66785 53.9147 5.59994 53.9162H45.6385C46.571 53.9157 47.4653 53.5451 48.1249 52.8859C48.7845 52.2267 49.1555 51.3326 49.1564 50.4001V8.93649C49.155 8.00409 48.7838 7.11031 48.1244 6.45118C47.4649 5.79204 46.5709 5.42134 45.6385 5.42038H44.2244C44.2444 5.06516 44.2444 4.7091 44.2244 4.35389H45.6403C46.2426 4.35341 46.8391 4.47157 47.3957 4.7016C47.9523 4.93164 48.4581 5.26906 48.8843 5.69459C49.3106 6.12013 49.6488 6.62544 49.8797 7.18169C50.1106 7.73793 50.2297 8.33422 50.2302 8.93649V50.4001C50.2287 51.615 49.7455 52.7798 48.8864 53.6389C48.0273 54.4979 46.8625 54.9812 45.6476 54.9827H5.60904C4.39457 54.9802 3.23055 54.4966 2.37196 53.6377C1.51336 52.7787 1.03019 51.6145 1.02826 50.4001V8.93649C1.02971 7.72187 1.51273 6.55738 2.37143 5.69834C3.23012 4.8393 4.39442 4.35582 5.60904 4.35389H7.64372C7.8238 4.15617 8.0198 3.97357 8.22974 3.80791C8.491 3.60263 8.78598 3.44436 9.10149 3.34019H5.59994C4.11582 3.34163 2.69284 3.93159 1.64306 4.98068C0.59329 6.02977 0.00240859 7.45237 0 8.93649V50.4001C0.00192618 51.8847 0.592536 53.3079 1.64231 54.3577C2.69209 55.4075 4.11533 55.9981 5.59994 56H45.6385C47.1233 55.9981 48.5467 55.4075 49.5968 54.3578C50.6468 53.3081 51.2379 51.8848 51.2403 50.4001V8.93649C51.2383 7.45189 50.6477 6.02864 49.5979 4.97886C48.5482 3.92909 47.1249 3.33847 45.6403 3.33655ZM23.8248 28.7538C25.2307 28.7538 26.6051 29.1707 27.7741 29.9518C28.9431 30.7329 29.8543 31.8431 30.3923 33.1421C30.9304 34.441 31.0711 35.8703 30.7968 37.2493C30.5225 38.6282 29.8455 39.8948 28.8514 40.889C27.8572 41.8832 26.5905 42.5602 25.2116 42.8345C23.8326 43.1088 22.4033 42.968 21.1044 42.43C19.8055 41.8919 18.6952 40.9808 17.9141 39.8118C17.133 38.6428 16.7161 37.2684 16.7161 35.8624C16.7161 33.9771 17.465 32.169 18.7982 30.8358C20.1313 29.5027 21.9394 28.7538 23.8248 28.7538ZM26.9532 47.4991C20.6799 49.0078 14.5431 47.6538 10.5392 44.3761L12.6667 42.82C16.0627 45.5226 21.1968 46.6292 26.4436 45.3679C31.6905 44.1067 35.7253 40.8181 37.5325 36.8889L40.1023 37.3711C37.993 42.0666 33.1756 46.0086 26.9569 47.5045L26.9532 47.4991Z" fill="#63BC47"/>
<path d="M18.4123 35.8624C18.4114 37.0551 18.8045 38.2147 19.5303 39.1612C20.2561 40.1076 21.2742 40.7879 22.4263 41.0963C23.5784 41.4048 24.8002 41.3242 25.9018 40.867C27.0034 40.4099 27.9233 39.6018 28.5185 38.5682C29.1137 37.5346 29.351 36.3334 29.1935 35.1511C29.0359 33.9689 28.4924 32.8717 27.6474 32.03C26.8023 31.1884 25.703 30.6493 24.5201 30.4965C23.3372 30.3437 22.1369 30.5858 21.1058 31.1852C21.6858 31.0306 22.2996 31.0613 22.8612 31.2732C23.4229 31.485 23.9041 31.8673 24.2375 32.3664C24.571 32.8655 24.7398 33.4565 24.7205 34.0564C24.7011 34.6563 24.4945 35.2352 24.1296 35.7118C23.7647 36.1884 23.2598 36.5388 22.6857 36.714C22.1115 36.8892 21.497 36.8803 20.9282 36.6886C20.3594 36.4969 19.8648 36.132 19.5138 35.6451C19.1628 35.1581 18.973 34.5736 18.971 33.9733C18.9694 33.7503 18.9945 33.5279 19.0456 33.3109C18.6265 34.0958 18.4089 34.9726 18.4123 35.8624Z" fill="#63BC47"/>
<path d="M62.506 35.0301C55.1444 35.0301 55.1444 47.2892 62.506 47.2892C63.7605 47.2948 64.9963 46.9857 66.1004 46.3901L66.5954 50.5505C65.3 51.0885 63.914 51.3751 62.5115 51.395C49.8975 51.395 49.923 30.9826 62.5115 30.9826C63.7773 30.9669 65.0305 31.2356 66.1786 31.7688L65.7364 35.9019C64.7651 35.3084 63.644 35.0059 62.506 35.0301Z" fill="black"/>
<path d="M75.1018 30.5039H75.4912L83.3169 51.3385H79.1311L78.3776 49.1746H72.2153L71.4874 51.3385H67.2724L75.1018 30.5039ZM77 45.4055L75.3092 40.1769L73.5621 45.4055H77Z" fill="black"/>
<path d="M99.5453 30.9243H100.715V51.3385H96.9446L96.9701 40.1204L92.2109 45.5184L87.4518 40.1204V51.3385H83.6791V30.9243H84.8766L92.2109 39.7546L99.5453 30.9243Z" fill="black"/>
<path d="M102.272 45.8278C103.787 46.9878 105.673 47.5571 107.577 47.4294C108.669 47.3456 109.606 46.503 109.502 45.4056C109.424 44.2536 108.618 43.7476 107.577 43.3527C104.665 42.2007 102.062 40.5973 102.062 37.2232C102.062 33.849 104.221 31.2629 107.316 31.0936C108.279 31.0372 109.555 31.0372 111.946 31.9381L111.479 35.8182C109.424 34.9173 108.254 34.9464 107.682 34.9737C106.356 35.0593 105.757 36.0984 105.835 37.2232C105.913 38.3479 106.849 38.8611 107.915 39.2488C110.803 40.4008 113.3 42.2007 113.3 45.4056C113.3 48.7525 111.166 51.3113 107.682 51.5078C106.641 51.5916 104.326 51.4514 101.802 50.0519L102.272 45.8278Z" fill="black"/>
<path d="M67.6146 28.3601L62.0965 17.9118H59.4612V28.3601H53.9887V0.993713H64.7827C74.5412 0.993713 75.4985 14.7342 67.4617 17.0692L73.8151 28.3528L67.6146 28.3601ZM59.4612 12.5903H64.2804C67.9931 12.5903 67.9931 6.46808 64.2804 6.46808H59.4576L59.4612 12.5903Z" fill="black"/>
<path d="M85.4281 0H86.0032L97.5216 28.36H91.3611L90.2509 25.4117H81.1804L80.1139 28.36H73.9097L85.4281 0ZM88.2217 20.2832L85.7357 13.1654L83.1714 20.2832H88.2217Z" fill="black"/>
<path d="M97.6071 0.957336H108.437C113.299 0.957336 116.323 4.43887 116.207 9.2617C116.13 11.3273 115.404 13.4712 113.683 14.6578C114.561 15.274 115.277 16.0935 115.77 17.0465C116.263 17.9994 116.517 19.0575 116.513 20.1303C116.513 24.7239 112.873 28.3601 108.436 28.3601H97.6071V0.957336ZM103.12 11.9406H107.979C109.549 11.9406 110.505 10.6776 110.505 9.18344C110.505 7.65469 109.549 6.42988 107.979 6.42988H103.12V11.9406ZM103.12 22.8876H107.979C108.342 22.8912 108.702 22.8224 109.038 22.6851C109.374 22.5478 109.68 22.3449 109.937 22.0881C110.193 21.8314 110.396 21.526 110.534 21.1898C110.671 20.8536 110.74 20.4934 110.736 20.1303C110.74 19.7691 110.671 19.4108 110.533 19.0767C110.395 18.7427 110.192 18.4399 109.934 18.1863C109.677 17.9327 109.371 17.7336 109.035 17.6007C108.699 17.4679 108.34 17.4041 107.979 17.4132H103.12V22.8876Z" fill="black"/>
<path d="M118.254 0.957336H129.086C133.948 0.957336 136.97 4.43887 136.856 9.2617C136.779 11.3273 136.051 13.4712 134.33 14.6578C135.209 15.2733 135.926 16.0927 136.419 17.0457C136.913 17.9987 137.168 19.0571 137.163 20.1303C137.163 24.7239 133.523 28.3601 129.086 28.3601H118.254V0.957336ZM123.767 11.9406H128.628C130.197 11.9406 131.152 10.6776 131.152 9.18344C131.152 7.65469 130.197 6.42988 128.628 6.42988H123.767V11.9406ZM123.767 22.8876H128.628C128.991 22.891 129.351 22.8219 129.687 22.6846C130.023 22.5472 130.328 22.3442 130.584 22.0875C130.841 21.8307 131.044 21.5254 131.181 21.1894C131.318 20.8533 131.387 20.4933 131.383 20.1303C131.387 19.7692 131.318 19.4109 131.181 19.0769C131.043 18.7429 130.84 18.44 130.583 18.1864C130.326 17.9328 130.02 17.7336 129.684 17.6008C129.348 17.4679 128.989 17.4041 128.628 17.4132H123.767V22.8876Z" fill="black"/>
<path d="M144.223 0.993713H138.749V28.3601H144.223V0.993713Z" fill="black"/>
<path d="M152.871 28.36V6.46618H146.057V1.03186H165.156V6.46618H158.344V28.36H152.871Z" fill="black"/>
<path d="M166.22 20.8582C168.501 22.45 171.254 23.2201 174.03 23.0421C175.635 22.9275 177.013 21.7809 176.862 20.2867C176.752 18.7143 175.559 18.0173 174.022 17.4895C169.735 15.9207 165.907 13.7386 165.907 9.14693C165.907 4.55523 169.083 1.03184 173.638 0.802527C175.054 0.72609 176.931 0.72609 180.45 1.95091L179.763 7.22872C176.738 6.0039 175.016 6.04394 174.174 6.08034C172.223 6.19499 171.342 7.61272 171.458 9.14329C171.609 10.6739 172.949 11.3618 174.517 11.8987C178.767 13.4675 182.44 15.9171 182.44 20.2795C182.44 24.8293 179.302 28.3181 174.174 28.5857C172.643 28.7003 169.236 28.5092 165.525 26.5946L166.22 20.8582Z" fill="black"/>
<path d="M123.064 50.363C123.064 51.455 121.437 51.455 121.437 50.363C121.437 49.2711 123.064 49.282 123.064 50.363Z" fill="black"/>
<path d="M121.01 48.4539C121.429 47.8523 121.632 47.1258 121.585 46.3938C121.556 45.9697 121.252 45.6057 120.857 45.6458C120.462 45.6858 120.26 45.9897 120.129 46.3938C119.714 47.524 119.139 48.534 117.927 48.534C116.715 48.534 115.785 47.6968 115.724 46.4939C115.704 46.1208 115.704 45.6258 116.027 44.6958L117.421 44.8778C117.099 45.6767 117.108 46.1317 117.119 46.3537C117.117 46.4562 117.138 46.5576 117.18 46.6513C117.221 46.7449 117.282 46.8286 117.359 46.8966C117.436 46.9646 117.526 47.0153 117.624 47.0454C117.722 47.0754 117.825 47.0841 117.927 47.0708C118.331 47.0289 118.513 46.6759 118.655 46.2627C119.07 45.1417 119.716 44.1716 120.868 44.1716C122.069 44.1716 122.988 44.9997 123.052 46.3556C123.078 47.1494 122.894 47.9362 122.518 48.6359L121.01 48.4539Z" fill="black"/>
<path d="M122.99 43.0596H115.768V39.4452H117.211V41.6164H118.656V39.7182H120.1V41.6164H121.545V39.3232H122.99V43.0596Z" fill="black"/>
<path d="M119.141 36.5461L115.757 38.5044V36.7627L117.759 35.6707L115.757 34.5897V32.8826L119.141 34.8536L122.99 32.5768V34.2839L120.516 35.6707L122.992 37.0648V38.8229L119.141 36.5461Z" fill="black"/>
</svg>
