<?xml version="1.0" standalone="no"?>
<!DOCTYPE svg PUBLIC "-//W3C//DTD SVG 20010904//EN"
 "http://www.w3.org/TR/2001/REC-SVG-20010904/DTD/svg10.dtd">
<svg version="1.0" xmlns="http://www.w3.org/2000/svg"
 width="932.000000pt" height="932.000000pt" viewBox="0 0 932.000000 932.000000"
 preserveAspectRatio="xMidYMid meet">
<metadata>
Created by potrace 1.11, written by Peter Selinger 2001-2013
</metadata>
<g transform="translate(0.000000,932.000000) scale(0.100000,-0.100000)"
fill="#000000" stroke="none">
<path d="M6767 9304 c2 -6 -3 -17 -12 -24 -8 -7 -15 -9 -15 -5 0 4 -7 2 -15
-5 -10 -9 -15 -9 -15 -1 0 6 5 11 12 11 6 0 8 3 5 6 -4 4 -13 1 -22 -6 -12
-10 -15 -10 -15 1 0 11 -2 11 -9 -1 -6 -8 -8 -17 -6 -20 2 -3 -6 -7 -18 -7
-21 -2 -21 -1 -4 12 10 7 14 16 8 19 -5 3 -15 -7 -23 -24 -7 -16 -17 -30 -21
-30 -5 0 -5 6 -1 13 6 9 4 9 -8 -1 -13 -10 -17 -10 -21 0 -4 9 -6 7 -6 -4 -1
-9 -6 -20 -13 -24 -7 -4 -8 -3 -4 4 4 7 3 12 -2 12 -5 0 -12 -9 -15 -21 -3
-12 -10 -18 -16 -15 -5 4 -15 -2 -21 -11 -10 -15 -11 -15 -6 -1 4 15 1 16 -33
9 -2 -1 2 -7 8 -15 10 -12 8 -13 -10 -9 -17 5 -20 3 -14 -7 6 -9 4 -11 -6 -5
-18 12 -49 14 -43 3 3 -4 0 -8 -7 -8 -7 0 -10 -3 -7 -6 4 -3 16 -1 27 6 30 16
26 7 -10 -19 -18 -13 -29 -19 -25 -12 4 6 2 11 -3 11 -6 0 -11 -6 -11 -12 0
-9 -4 -8 -10 2 -8 13 -10 12 -10 -2 0 -10 5 -18 12 -18 6 0 9 -3 6 -6 -4 -3
-17 0 -30 7 -20 11 -22 11 -10 -4 11 -13 10 -15 -13 -13 -22 3 -23 1 -13 -12
11 -13 10 -15 -6 -9 -16 6 -17 5 -6 -8 7 -9 10 -18 6 -22 -3 -3 -6 -1 -6 6 0
7 -5 9 -10 6 -6 -4 -8 -11 -5 -16 4 -5 -5 -5 -20 1 -23 9 -25 8 -15 -10 7 -13
7 -21 -2 -26 -7 -4 -8 -3 -4 4 13 21 -12 13 -41 -14 l-28 -25 30 16 c20 11 24
12 13 3 -10 -8 -14 -18 -10 -22 4 -4 2 -7 -3 -6 -23 5 -37 -1 -32 -14 4 -10 0
-12 -15 -8 -17 4 -20 2 -15 -11 6 -17 -17 -42 -41 -42 -8 0 -17 -7 -19 -15 -4
-13 -3 -13 6 0 7 9 11 10 11 3 0 -6 -5 -15 -10 -18 -6 -4 -8 -11 -5 -16 3 -5
-1 -6 -9 -3 -9 3 -13 11 -9 18 3 6 2 8 -2 3 -14 -12 -17 -49 -3 -41 7 4 8 3 4
-5 -6 -9 -11 -9 -22 0 -17 14 -19 -2 -1 -20 10 -10 8 -11 -7 -5 -15 6 -17 4
-11 -6 5 -9 4 -11 -4 -6 -6 4 -9 12 -6 17 4 5 1 9 -6 9 -7 0 -9 -8 -6 -21 4
-17 3 -19 -6 -10 -15 15 -30 14 -21 -1 4 -7 -5 -2 -20 12 -18 16 -26 20 -24
10 2 -9 -3 -14 -12 -11 -8 2 -23 3 -33 3 -10 0 -15 4 -11 10 4 7 2 8 -4 4 -7
-4 -12 -14 -12 -22 0 -8 -4 -13 -10 -9 -5 3 -7 13 -4 23 5 14 4 15 -5 2 -6 -8
-11 -10 -11 -5 0 6 -7 1 -15 -9 -9 -11 -15 -14 -15 -7 0 8 -8 10 -22 6 -13 -4
-18 -3 -11 2 6 5 -10 8 -38 8 -31 0 -49 -4 -49 -12 0 -13 -25 -12 -37 2 -4 4
-3 5 4 1 6 -3 14 -2 17 3 4 5 -2 8 -11 7 -9 -2 -19 -8 -21 -14 -2 -8 -8 -7
-18 3 -15 15 -44 10 -44 -7 0 -6 -9 0 -21 13 -11 13 -18 19 -15 13 8 -17 -20
-39 -30 -23 -4 7 -3 9 3 6 5 -3 10 0 10 7 0 7 -6 13 -13 13 -7 0 -11 -3 -9 -7
2 -3 0 -12 -6 -20 -6 -10 -9 -11 -9 -2 0 6 -12 12 -26 12 -14 0 -23 -4 -20 -8
3 -5 -1 -9 -9 -9 -8 0 -12 4 -9 9 3 4 -2 8 -10 8 -9 0 -16 -5 -16 -11 0 -5 -4
-8 -10 -4 -5 3 -8 11 -6 18 1 7 1 9 -1 5 -8 -13 -25 -9 -18 5 4 6 -3 1 -15
-13 -12 -14 -20 -18 -17 -10 4 12 -7 15 -59 15 -42 0 -64 -4 -64 -12 0 -13
-25 -12 -37 2 -4 4 -3 5 4 1 6 -3 14 -2 17 3 4 5 -2 8 -11 7 -9 -2 -19 -8 -21
-14 -2 -8 -8 -7 -18 3 -15 15 -44 10 -44 -7 0 -6 -9 0 -21 13 -11 13 -18 19
-15 13 8 -17 -20 -39 -30 -23 -4 7 -3 9 3 6 5 -3 10 0 10 7 0 7 -6 13 -13 13
-7 0 -11 -3 -9 -7 2 -3 0 -12 -6 -20 -6 -10 -9 -11 -9 -2 0 6 -12 12 -26 12
-14 0 -23 -4 -20 -8 3 -5 -1 -9 -9 -9 -8 0 -12 4 -9 9 3 4 -2 8 -10 8 -9 0
-16 -5 -16 -11 0 -5 -4 -8 -10 -4 -5 3 -8 11 -6 18 1 7 1 9 -1 5 -8 -13 -25
-9 -18 5 4 6 -3 1 -15 -13 -12 -14 -20 -18 -17 -10 4 12 -7 15 -59 15 -42 0
-64 -4 -64 -12 0 -13 -25 -12 -37 2 -4 4 -3 5 4 1 6 -3 14 -2 17 3 4 5 -2 8
-11 7 -9 -2 -19 -8 -21 -14 -2 -8 -8 -7 -18 3 -15 15 -44 10 -44 -7 0 -6 -9 0
-21 13 -11 13 -18 19 -15 13 8 -17 -20 -39 -30 -23 -4 7 -3 9 3 6 5 -3 10 0
10 7 0 7 -6 13 -13 13 -7 0 -13 -3 -12 -6 0 -3 0 -13 -1 -21 -1 -12 -3 -13
-10 -1 -5 7 -17 11 -27 7 -27 -8 -39 -7 -39 3 0 5 -4 13 -9 18 -5 4 -6 3 -3
-3 4 -7 -3 -11 -20 -11 -15 0 -29 -6 -31 -12 -6 -18 -22 -2 -16 17 3 9 -2 6
-11 -8 -8 -14 -14 -18 -13 -10 2 9 -1 16 -7 17 -5 0 -9 -4 -7 -9 2 -6 -4 -7
-15 -3 -10 4 -26 7 -36 7 -10 0 -15 4 -11 10 4 7 2 8 -4 4 -7 -4 -12 -14 -12
-22 0 -8 -4 -13 -10 -9 -5 3 -7 13 -4 23 5 14 4 15 -5 2 -6 -8 -11 -10 -11 -5
0 6 -7 1 -15 -9 -8 -11 -15 -15 -15 -9 0 6 -7 14 -16 17 -8 3 -12 2 -9 -4 3
-6 -1 -10 -9 -10 -9 0 -19 0 -23 0 -5 0 -8 4 -8 9 0 5 -4 13 -9 18 -5 4 -6 3
-3 -3 4 -7 -3 -11 -20 -11 -15 0 -29 -6 -31 -12 -6 -18 -22 -2 -16 17 3 9 -2
6 -11 -8 -8 -14 -14 -18 -13 -10 2 8 -2 16 -7 16 -6 1 -9 -3 -7 -8 2 -6 -4 -7
-15 -3 -10 4 -26 7 -36 7 -10 0 -15 4 -11 10 4 7 2 8 -4 4 -7 -4 -12 -14 -12
-22 0 -8 -4 -13 -10 -9 -5 3 -7 13 -4 23 5 14 4 15 -5 2 -6 -8 -11 -10 -11 -5
0 6 -7 1 -15 -9 -9 -11 -15 -14 -15 -7 0 8 -8 10 -22 6 -13 -4 -18 -3 -11 2 6
5 -10 8 -38 8 -31 0 -49 -4 -49 -12 0 -13 -25 -12 -37 2 -4 4 -3 5 4 1 6 -3
14 -2 17 3 4 5 -2 8 -11 7 -9 -2 -19 -8 -21 -14 -2 -8 -8 -7 -18 3 -15 15 -44
10 -44 -7 0 -6 -9 0 -21 13 -11 13 -18 19 -15 13 8 -17 -20 -39 -30 -23 -4 7
-3 9 3 6 5 -3 10 0 10 7 0 7 -6 13 -13 13 -7 0 -11 -3 -9 -7 2 -3 0 -12 -6
-20 -6 -10 -9 -11 -9 -2 0 6 -12 12 -26 12 -14 0 -23 -4 -20 -8 3 -5 -1 -9 -9
-9 -8 0 -12 4 -9 9 3 4 -2 8 -10 8 -9 0 -16 -5 -16 -11 0 -5 -4 -8 -10 -4 -5
3 -8 11 -6 18 1 7 1 9 -1 5 -8 -13 -25 -9 -18 5 4 6 -3 1 -15 -13 -12 -14 -20
-18 -17 -10 4 12 -7 15 -59 15 -42 0 -64 -4 -64 -12 0 -13 -25 -12 -37 2 -4 4
-3 5 4 1 6 -3 14 -2 17 3 4 5 -2 8 -11 7 -9 -2 -19 -8 -21 -14 -2 -8 -8 -7
-18 3 -15 15 -44 10 -44 -7 0 -6 -9 0 -21 13 -11 13 -18 19 -15 13 8 -17 -20
-39 -30 -23 -4 7 -3 9 3 6 5 -3 10 0 10 7 0 7 -6 13 -13 13 -7 0 -11 -3 -9 -7
2 -3 0 -12 -6 -20 -6 -10 -9 -11 -9 -2 0 6 -12 12 -26 12 -14 0 -23 -4 -20 -8
3 -5 -1 -9 -9 -9 -8 0 -12 4 -9 9 3 4 -2 8 -10 8 -9 0 -16 -5 -16 -11 0 -5 -4
-8 -10 -4 -5 3 -8 11 -6 18 1 7 1 9 -1 5 -8 -13 -25 -9 -18 5 4 6 -3 1 -15
-13 -12 -14 -20 -18 -17 -10 4 12 -7 15 -59 15 -42 0 -64 -4 -64 -12 0 -13
-25 -12 -37 2 -4 4 -3 5 4 1 6 -3 14 -2 17 3 4 5 -1 8 -10 7 -8 -1 -19 -8 -24
-15 -5 -10 -9 -10 -11 -2 -3 7 -17 14 -32 15 -19 2 -27 -1 -24 -9 3 -6 -1 -12
-9 -12 -9 0 -13 6 -9 16 5 12 2 11 -14 -3 -14 -13 -21 -14 -27 -5 -4 7 -3 10
3 6 5 -3 10 0 10 8 0 22 -12 18 -25 -7 -6 -13 -11 -17 -11 -10 -1 6 -10 12
-21 12 -11 0 -20 5 -20 12 0 6 -3 8 -6 5 -4 -4 -2 -13 4 -20 9 -10 8 -14 -3
-14 -8 0 -12 4 -9 8 2 4 0 10 -5 14 -6 3 -8 13 -5 23 5 14 4 14 -4 3 -15 -22
-44 -22 -49 -1 -3 10 -12 21 -20 25 -13 4 -14 3 -3 -10 7 -9 10 -18 6 -22 -3
-3 -6 -1 -6 5 0 16 -27 15 -33 0 -3 -7 -4 -3 -4 9 1 12 5 19 9 17 4 -3 5 2 2
10 -5 13 -9 12 -23 -6 -14 -17 -18 -18 -18 -5 0 9 5 13 10 10 6 -4 7 -1 3 6
-5 7 -11 10 -14 7 -3 -3 -12 0 -20 7 -13 9 -14 9 -8 0 4 -7 3 -13 -3 -13 -5 0
-12 4 -15 8 -6 11 -43 9 -53 -3 -5 -4 -2 -5 6 0 10 5 12 4 7 -4 -11 -17 -25
-4 -21 19 2 12 0 18 -6 15 -5 -4 -7 -11 -4 -16 4 -5 1 -9 -4 -9 -10 0 -15 14
-12 32 0 4 -7 4 -16 1 -11 -4 -13 -8 -5 -11 7 -2 12 -8 12 -13 0 -6 -9 -5 -21
1 -15 9 -24 8 -37 -2 -10 -8 -13 -9 -9 -1 4 6 2 15 -4 19 -8 4 -9 3 -5 -4 4
-7 2 -12 -4 -12 -6 0 -9 -4 -5 -9 3 -5 1 -12 -4 -15 -5 -4 -8 4 -7 17 2 17 -2
22 -19 22 -11 -1 -27 -5 -34 -9 -8 -5 -17 -3 -22 5 -6 9 -7 3 -3 -16 7 -28 7
-29 -10 -12 -22 22 -30 22 -22 0 6 -15 4 -14 -14 2 -20 18 -21 18 -14 0 6 -14
4 -16 -7 -9 -21 13 -39 14 -39 2 0 -6 -6 -5 -15 2 -9 7 -15 8 -15 2 0 -17 32
-23 49 -10 14 12 14 11 2 -4 -9 -12 -22 -16 -42 -13 -15 3 -31 0 -35 -7 -4 -6
-3 -8 4 -4 6 3 13 3 16 -2 7 -12 -26 -12 -41 0 -7 6 -14 4 -19 -3 -5 -8 -3 -9
6 -4 9 5 11 4 6 -4 -6 -8 -12 -9 -20 -2 -16 14 -26 4 -18 -17 5 -15 4 -15 -11
-3 -14 11 -18 11 -23 -3 -3 -9 -10 -13 -15 -10 -5 3 -7 9 -5 13 3 4 -9 6 -27
5 -17 -1 -33 -7 -35 -13 -2 -6 -13 -1 -24 11 -11 13 -17 18 -14 12 8 -17 -20
-39 -30 -23 -4 7 -3 9 3 6 5 -3 10 0 10 7 0 7 -6 13 -13 13 -7 0 -11 -3 -9 -7
2 -3 0 -12 -6 -20 -6 -10 -9 -11 -9 -2 0 6 -12 12 -26 12 -14 0 -23 -4 -20 -8
3 -5 -1 -9 -9 -9 -8 0 -12 4 -9 9 3 4 -2 8 -10 8 -9 0 -16 -5 -16 -11 0 -5 -4
-8 -10 -4 -5 3 -8 11 -6 18 1 7 1 9 -1 5 -8 -13 -25 -9 -18 5 4 6 -3 1 -15
-13 -12 -14 -20 -18 -17 -10 4 12 -7 15 -59 15 -42 0 -64 -4 -64 -12 0 -13
-25 -12 -37 2 -4 4 -3 5 4 1 6 -3 14 -2 17 3 4 5 -1 8 -10 7 -8 -1 -19 -8 -24
-16 -6 -9 -10 -7 -15 10 -6 18 -9 20 -16 9 -5 -8 -9 -10 -9 -5 0 5 -10 1 -22
-10 -12 -10 -18 -13 -14 -6 4 6 4 12 -1 13 -50 5 -66 3 -73 -11 -8 -12 -9 -12
-10 -1 0 11 -4 9 -15 -5 -13 -17 -14 -17 -15 -2 0 9 -4 20 -10 23 -5 3 -7 0
-5 -7 4 -9 -2 -14 -15 -15 -12 -1 -18 3 -14 9 4 5 -5 2 -20 -7 -14 -9 -23 -22
-19 -29 3 -6 3 -8 -2 -4 -4 4 -14 3 -22 -3 -9 -9 -13 -8 -13 0 0 6 3 11 8 11
4 0 13 10 21 23 14 22 13 22 -12 -2 -16 -14 -30 -20 -39 -15 -10 6 -10 4 1 -9
12 -15 12 -17 -2 -12 -8 4 -18 2 -21 -3 -3 -6 -15 -8 -26 -5 -11 3 -17 10 -13
17 4 7 1 6 -9 -1 -8 -7 -18 -10 -21 -6 -4 3 -7 4 -7 1 0 -3 8 -12 17 -19 14
-12 16 -12 8 0 -6 10 -4 12 4 7 12 -8 7 -21 -7 -21 -4 0 -13 -4 -21 -9 -9 -6
-12 -5 -7 2 4 6 -1 10 -13 9 -16 -1 -18 -4 -8 -16 7 -9 8 -12 1 -8 -13 7 -64
-14 -64 -27 0 -5 -8 -2 -17 5 -11 10 -14 10 -9 2 7 -13 -3 -17 -34 -14 -11 1
-11 -1 3 -9 9 -6 23 -8 30 -5 6 4 3 -1 -7 -9 -11 -9 -30 -16 -44 -16 -13 0
-20 -4 -17 -10 3 -6 -1 -13 -9 -16 -9 -3 -14 -9 -11 -14 2 -4 -7 -6 -20 -4
-14 1 -28 -3 -32 -8 -3 -7 -1 -8 5 -4 7 4 12 1 12 -8 0 -8 -5 -18 -12 -22 -7
-5 -8 -3 -3 7 8 12 6 12 -8 0 -15 -12 -17 -11 -18 5 0 11 -3 14 -6 6 -3 -7 0
-19 7 -27 10 -12 7 -13 -17 -10 -15 2 -22 2 -15 -1 17 -8 15 -27 -2 -21 -10 4
-12 0 -9 -14 3 -11 0 -19 -6 -19 -7 0 -9 5 -5 13 5 8 2 7 -10 -2 -13 -11 -14
-16 -4 -22 10 -7 9 -9 -4 -9 -10 0 -18 -7 -18 -15 0 -8 -3 -14 -7 -14 -19 3
-23 -2 -13 -20 7 -14 7 -22 -2 -27 -7 -4 -8 -3 -4 4 4 7 2 12 -5 12 -7 0 -9
-8 -6 -21 3 -13 1 -19 -6 -16 -7 3 -11 11 -9 18 3 11 1 11 -9 2 -10 -10 -9
-16 2 -29 12 -16 12 -17 -3 -11 -12 4 -15 2 -11 -8 3 -8 10 -12 16 -8 6 3 7 1
3 -6 -6 -9 -11 -9 -24 1 -14 12 -14 10 -3 -9 6 -13 9 -24 6 -24 -3 -1 -9 -3
-15 -4 -5 -1 -13 -3 -16 -4 -4 0 0 -9 7 -18 10 -11 10 -14 2 -9 -7 4 -13 3
-13 -3 0 -5 5 -11 10 -13 6 -2 0 -9 -12 -17 -21 -13 -22 -13 -9 2 9 11 10 17
2 17 -10 0 -13 -7 -10 -26 0 -4 -5 -11 -13 -16 -10 -8 -9 -9 4 -4 10 3 20 0
24 -6 4 -7 3 -8 -4 -4 -7 4 -12 2 -12 -4 0 -6 -4 -9 -9 -5 -5 3 -12 1 -15 -4
-4 -5 -1 -13 5 -17 8 -5 9 -3 4 6 -6 9 -4 11 5 5 10 -6 9 -11 -5 -22 -20 -14
-23 -23 -30 -91 -3 -32 -1 -41 8 -35 9 5 9 3 1 -8 -7 -10 -10 -1090 -9 -3624
1 -3118 3 -3610 15 -3607 10 2 8 -3 -5 -19 l-20 -22 22 12 c20 10 22 9 16 -6
-4 -10 -11 -22 -17 -26 -6 -5 0 -5 14 -1 23 6 24 6 10 -11 -9 -11 -10 -16 -3
-11 7 4 13 2 13 -3 0 -6 -5 -11 -12 -11 -6 0 -3 -7 8 -16 10 -8 13 -12 5 -8
-9 4 -12 3 -7 -4 3 -5 3 -12 -1 -14 -5 -1 3 -14 16 -28 l25 -25 -17 28 c-18
28 -14 36 6 14 17 -18 19 -37 7 -52 -13 -15 -3 -24 23 -20 13 3 15 0 8 -9 -12
-15 3 -41 18 -32 6 4 11 2 11 -3 0 -6 -7 -11 -15 -11 -8 0 -15 -4 -15 -9 0 -5
11 -8 25 -6 14 1 28 -2 32 -8 3 -6 1 -7 -5 -3 -7 4 -10 -4 -10 -23 l1 -30 18
22 c10 12 18 17 19 10 0 -6 -6 -13 -12 -16 -9 -3 -6 -11 9 -24 13 -11 23 -27
23 -36 0 -9 9 -19 20 -22 11 -3 20 -13 20 -21 0 -8 9 -14 20 -14 11 0 20 -7
20 -16 0 -8 4 -13 9 -10 5 3 15 -2 22 -11 10 -12 10 -14 1 -9 -7 4 -12 2 -12
-5 0 -6 8 -9 19 -6 15 4 19 0 16 -17 -4 -20 -4 -21 10 -2 15 19 15 19 15 -1 0
-12 -3 -23 -7 -26 -5 -2 -3 -2 4 -1 7 2 15 -1 19 -7 4 -6 14 -3 27 8 19 16 20
16 8 1 -11 -15 -11 -18 0 -19 8 -1 18 -1 23 0 5 1 4 -4 -3 -13 -8 -10 -9 -16
-1 -21 5 -3 10 -3 10 1 0 4 9 -1 20 -11 16 -15 22 -16 35 -5 9 7 18 10 22 6 3
-3 1 -6 -5 -6 -7 0 -12 -4 -12 -10 0 -5 7 -6 17 -3 10 4 14 2 10 -4 -3 -5 -1
-10 6 -11 60 -8 89 -21 80 -36 -4 -6 1 -5 10 3 9 7 17 9 17 3 0 -18 29 -22 45
-6 18 18 19 11 3 -19 -10 -19 -9 -20 4 -10 8 7 18 10 22 6 11 -11 655 -10 649
1 -4 5 0 6 8 0 21 -12 120 -14 112 -1 -4 6 -1 7 8 1 20 -12 239 -13 232 -1 -4
6 -1 7 8 1 21 -12 120 -14 112 -1 -4 6 -1 7 8 1 19 -12 799 -12 792 0 -4 5 0
6 8 0 21 -12 120 -14 112 -1 -4 6 -1 7 8 1 20 -12 239 -13 232 -1 -4 6 -1 7 8
1 21 -12 120 -14 112 -1 -4 6 -1 7 8 1 19 -12 799 -12 792 0 -4 5 0 6 8 0 21
-12 120 -14 112 -1 -4 6 -1 7 8 1 20 -12 239 -13 232 -1 -4 6 -1 7 8 1 21 -12
120 -14 112 -1 -4 6 -1 7 8 1 19 -12 799 -12 792 0 -4 5 0 6 8 0 21 -12 120
-14 112 -1 -4 6 -1 7 8 1 20 -12 239 -13 232 -1 -4 6 -1 7 8 1 21 -12 120 -14
112 -1 -4 6 -1 7 8 1 19 -12 799 -12 792 0 -4 5 0 6 8 0 21 -12 120 -14 112
-1 -4 6 -1 7 8 1 20 -12 239 -13 232 -1 -4 6 -1 7 8 1 21 -12 120 -14 112 -1
-4 6 -1 7 8 1 21 -13 752 -12 761 1 5 7 8 7 8 -1 0 -12 56 -12 67 1 5 4 3 5
-4 1 -6 -3 -14 -2 -17 3 -7 11 35 8 55 -4 8 -5 5 2 -6 16 -13 15 -14 19 -3 11
10 -8 19 -9 22 -3 8 13 46 10 46 -4 0 -5 4 -3 9 5 6 8 7 19 4 25 -4 5 -2 6 3
2 5 -5 9 -13 9 -18 0 -5 3 -9 8 -9 4 0 7 3 6 7 0 3 6 10 15 15 9 5 16 17 17
26 0 12 3 11 9 -6 8 -20 12 -21 30 -10 11 7 20 16 20 21 0 4 6 5 13 1 9 -6 9
-4 -1 8 -10 13 -10 18 -1 24 7 4 9 3 6 -3 -4 -6 0 -14 9 -17 24 -9 42 -6 19 4
-11 5 -14 9 -7 9 8 1 10 6 6 13 -5 8 0 7 11 -2 15 -12 17 -12 10 -1 -6 11 -3
13 12 9 17 -4 20 -1 17 16 -2 11 -2 15 2 8 9 -18 24 -4 17 16 -6 15 -5 15 10
3 9 -7 14 -18 10 -24 -3 -6 -1 -7 5 -3 8 5 9 13 2 25 -13 25 -2 33 24 19 19
-10 20 -10 8 5 -12 14 -11 16 6 12 13 -2 19 2 18 12 0 9 5 18 13 21 8 3 11 0
7 -7 -4 -6 -2 -11 3 -11 6 0 11 6 11 14 0 8 6 17 13 20 6 3 1 3 -13 0 l-25 -6
27 21 c14 11 34 21 43 21 9 0 13 5 10 10 -4 6 -11 8 -16 5 -15 -10 -10 2 8 16
11 10 14 10 9 2 -7 -13 6 -18 17 -7 10 10 -4 34 -17 27 -6 -3 -5 0 3 8 10 11
15 11 18 2 7 -20 25 -15 19 5 -3 9 -1 24 5 32 8 12 9 10 4 -7 -4 -14 -2 -23 5
-23 6 0 9 4 5 9 -3 5 -1 12 4 16 6 3 7 13 4 22 -5 13 -2 15 12 10 16 -7 16 -5
4 10 -12 14 -12 16 1 11 8 -3 21 1 29 9 11 12 10 14 -4 11 -10 -2 -20 4 -22
12 -3 11 -2 11 4 3 6 -8 14 -9 23 -3 13 9 13 10 0 10 -12 1 -11 4 4 15 10 8
23 12 29 8 6 -3 7 -1 3 6 -4 6 -11 9 -16 6 -5 -3 -12 0 -16 6 -4 8 -3 9 4 5 7
-4 12 -2 12 4 0 6 5 8 13 4 8 -5 7 -2 -2 9 -12 15 -12 17 4 11 15 -6 16 -5 5
17 -12 21 -11 22 1 12 12 -10 15 -8 15 7 0 10 -5 16 -11 13 -5 -3 -5 0 2 7 10
11 15 11 30 -1 16 -12 17 -12 7 1 -19 26 -24 61 -8 67 8 3 14 9 14 15 0 5 -4
7 -8 4 -5 -3 -9 1 -9 9 0 8 4 12 9 9 12 -8 10 10 -3 23 -9 9 -6 11 12 7 16 -4
20 -3 11 4 -7 5 -13 17 -12 28 1 54 5 71 15 68 6 -3 10 22 10 70 0 41 -3 72
-7 69 -5 -2 -8 1 -8 6 0 6 6 11 13 11 8 0 7 4 -3 10 -9 6 -11 10 -3 10 7 0 10
7 7 15 -4 8 -11 12 -18 9 -6 -3 -3 1 6 9 16 12 16 15 2 29 -12 12 -13 17 -3
23 8 5 10 4 5 -3 -4 -7 -2 -12 4 -12 10 0 8 15 -7 58 -3 6 1 12 8 12 11 0 11
3 -1 10 -9 6 -11 10 -3 10 7 0 10 7 7 15 -4 8 -11 12 -18 9 -6 -3 -3 1 6 9 14
11 15 16 5 27 -7 7 -7 10 -2 7 6 -3 10 9 10 28 0 18 -3 31 -7 29 -4 -3 -8 0
-8 5 0 6 6 11 13 11 8 0 7 4 -3 10 -9 6 -11 10 -3 10 7 0 10 7 7 15 -4 8 -11
12 -18 9 -6 -3 -3 1 6 9 16 12 16 15 2 29 -12 12 -13 17 -3 23 8 5 10 4 5 -3
-4 -7 -2 -12 4 -12 10 0 8 15 -7 58 -3 6 1 12 8 12 11 0 11 3 -1 10 -9 6 -11
10 -3 10 7 0 10 7 7 15 -4 8 -11 12 -18 9 -6 -3 -3 1 6 9 14 11 15 16 5 27 -7
7 -7 10 -2 7 6 -3 10 11 11 34 1 29 -3 39 -15 40 -12 0 -11 3 4 9 11 5 14 9 8
9 -9 1 -10 8 -3 27 7 19 7 31 -1 40 -8 10 -8 14 -1 14 6 0 9 7 6 15 -4 8 -11
12 -18 9 -6 -3 -4 0 4 8 16 14 23 48 10 48 -5 0 -11 -6 -13 -12 -4 -10 -6 -10
-6 0 -1 7 5 15 12 17 13 6 16 202 3 224 -4 6 -3 11 1 11 5 0 9 9 9 20 0 11 -4
20 -8 20 -4 0 -8 -5 -8 -12 0 -6 -3 -8 -7 -4 -5 4 1 14 11 22 20 14 20 14 0
15 -18 0 -18 1 1 9 11 5 14 9 8 9 -9 1 -10 8 -3 27 7 19 7 31 -1 40 -8 10 -8
14 -1 14 6 0 9 7 6 15 -4 8 -11 12 -18 9 -6 -3 -4 0 4 8 16 14 23 48 10 48 -5
0 -11 -6 -13 -12 -4 -10 -6 -10 -6 0 -1 7 5 15 12 17 13 6 16 202 3 224 -4 6
-3 11 1 11 5 0 9 9 9 20 0 11 -4 20 -8 20 -4 0 -8 -5 -8 -12 0 -6 -3 -8 -7 -4
-5 4 1 14 11 22 20 14 20 14 0 15 -18 0 -18 1 1 9 11 5 14 9 8 9 -9 1 -10 8
-3 27 7 19 7 31 -1 40 -8 10 -8 14 -1 14 6 0 9 7 6 15 -4 8 -11 12 -18 9 -6
-3 -4 0 4 8 17 14 23 48 9 48 -5 0 -9 -5 -9 -12 0 -6 -3 -8 -7 -4 -5 4 -1 13
7 19 21 17 21 137 0 138 -10 0 -8 3 5 9 11 5 14 9 8 9 -9 1 -10 8 -3 27 7 19
7 31 -1 40 -8 10 -8 14 -1 14 6 0 9 7 6 15 -4 8 -11 12 -18 9 -6 -3 -4 0 4 8
16 14 23 48 10 48 -5 0 -11 -6 -13 -12 -4 -10 -6 -10 -6 0 -1 7 5 15 12 17 13
6 16 202 3 224 -4 6 -3 11 1 11 5 0 9 9 9 20 0 11 -4 20 -8 20 -4 0 -8 -5 -8
-12 0 -6 -3 -8 -7 -4 -5 4 1 14 11 22 20 14 20 14 0 15 -18 0 -18 1 1 9 11 5
14 9 8 9 -9 1 -10 8 -3 27 7 19 7 31 -1 40 -8 10 -8 14 -1 14 6 0 9 7 6 15 -4
8 -11 12 -18 9 -6 -3 -4 0 4 8 16 14 23 48 10 48 -5 0 -11 -6 -13 -12 -4 -10
-6 -10 -6 0 -1 7 5 15 12 17 13 6 16 202 3 224 -4 6 -3 11 1 11 5 0 9 9 9 20
0 11 -4 20 -8 20 -4 0 -8 -5 -8 -12 0 -6 -3 -8 -7 -4 -5 4 1 14 11 22 20 14
20 14 0 15 -18 0 -18 1 1 9 11 5 14 9 8 9 -9 1 -10 8 -3 27 7 19 7 31 -1 40
-8 10 -8 14 -1 14 6 0 9 7 6 15 -4 8 -11 12 -18 9 -6 -3 -4 0 4 8 16 14 23 48
10 48 -5 0 -11 -6 -13 -12 -4 -10 -6 -10 -6 0 -1 7 5 15 12 18 13 5 15 103 2
124 -3 5 0 10 7 10 9 0 9 3 -2 10 -9 6 -11 10 -3 10 7 0 10 7 7 15 -4 8 -11
12 -18 9 -6 -3 -3 1 6 9 16 12 16 15 2 29 -12 12 -13 17 -3 23 8 5 10 4 5 -3
-4 -7 -2 -12 4 -12 10 0 8 15 -7 58 -3 6 1 12 8 12 11 0 11 3 -1 10 -9 6 -11
10 -3 10 7 0 10 7 7 15 -4 8 -11 12 -18 9 -6 -3 -3 1 6 9 14 11 15 16 5 27 -7
7 -7 10 -2 7 6 -3 10 9 10 28 0 18 -3 31 -7 29 -4 -3 -8 0 -8 5 0 6 6 11 13
11 8 0 7 4 -3 10 -9 6 -11 10 -3 10 7 0 10 7 7 15 -4 8 -11 12 -18 9 -6 -3 -3
1 6 9 16 12 16 15 2 29 -12 12 -13 17 -3 23 8 5 10 4 5 -3 -4 -7 -2 -12 4 -12
10 0 8 15 -7 58 -3 6 1 12 8 12 11 0 11 3 -1 10 -9 6 -11 10 -3 10 7 0 10 7 7
15 -4 8 -11 12 -18 9 -6 -3 -3 1 6 9 14 11 15 16 5 27 -7 7 -7 10 -2 7 6 -3
10 9 10 28 0 18 -3 31 -7 29 -4 -3 -8 0 -8 5 0 6 6 11 13 11 8 0 7 4 -3 10 -9
6 -11 10 -3 10 7 0 10 7 7 15 -4 8 -11 12 -18 9 -6 -3 -3 1 6 9 16 12 16 15 2
29 -12 12 -13 17 -3 23 8 5 10 4 5 -3 -4 -7 -2 -12 4 -12 10 0 8 15 -7 58 -3
6 1 12 8 12 11 0 11 3 -1 10 -9 6 -11 10 -3 10 7 0 10 7 7 15 -4 8 -11 12 -18
9 -6 -3 -3 1 6 9 14 11 15 16 5 27 -7 7 -7 10 -2 7 6 -3 10 9 10 28 0 18 -3
31 -7 29 -4 -3 -8 0 -8 5 0 6 6 11 13 11 8 0 7 4 -3 10 -9 6 -11 10 -3 10 7 0
10 7 7 15 -4 8 -11 12 -18 9 -6 -3 -3 1 6 9 16 12 16 15 2 29 -12 12 -13 17
-3 23 8 5 10 4 5 -3 -4 -7 -2 -12 4 -12 10 0 8 15 -7 58 -3 6 1 12 8 12 11 0
11 3 -1 10 -9 6 -11 10 -3 10 7 0 10 7 7 15 -4 8 -11 12 -18 9 -6 -3 -3 1 6 9
14 11 15 16 5 27 -7 7 -7 10 -2 7 12 -6 12 143 1 162 -4 6 -3 11 1 11 5 0 9 9
9 20 0 11 -4 20 -8 20 -4 0 -8 -5 -8 -12 0 -6 -3 -8 -7 -4 -5 4 1 14 11 22 20
14 20 14 0 15 -18 0 -18 1 1 9 11 5 14 9 8 9 -9 1 -10 8 -3 27 7 19 7 31 -1
40 -8 10 -8 14 -1 14 6 0 9 7 6 15 -4 8 -11 12 -18 9 -6 -3 -4 0 4 8 16 14 23
48 10 48 -5 0 -11 -6 -13 -12 -4 -10 -6 -10 -6 0 -1 7 5 15 12 17 13 6 16 202
3 224 -4 6 -3 11 1 11 5 0 9 9 9 20 0 11 -4 20 -8 20 -4 0 -8 -5 -8 -12 0 -6
-3 -8 -7 -4 -5 4 1 14 11 22 20 14 20 14 0 15 -18 0 -18 1 1 9 11 5 14 9 8 9
-9 1 -10 8 -3 27 7 19 7 31 -1 40 -8 10 -8 14 -1 14 6 0 9 7 6 15 -4 8 -11 12
-18 9 -6 -3 -4 0 4 8 16 14 23 48 10 48 -5 0 -11 -6 -13 -12 -4 -10 -6 -10 -6
0 -1 7 5 15 12 17 13 6 16 202 3 224 -4 6 -3 11 1 11 5 0 9 9 9 20 0 11 -4 20
-8 20 -4 0 -8 -5 -8 -12 0 -6 -3 -8 -7 -4 -5 4 1 14 11 22 20 14 20 14 0 15
-18 0 -18 1 1 9 11 5 14 9 8 9 -9 1 -10 8 -3 27 7 19 7 31 -1 40 -8 10 -8 14
-1 14 6 0 9 7 6 15 -4 8 -11 12 -18 9 -6 -3 -4 0 4 8 16 14 23 48 10 48 -5 0
-11 -6 -13 -12 -4 -10 -6 -10 -6 0 -1 7 5 15 12 17 13 6 16 202 3 224 -4 6 -3
11 1 11 5 0 9 9 9 20 0 11 -4 20 -8 20 -4 0 -8 -5 -8 -12 0 -6 -3 -8 -7 -4 -5
4 1 14 11 22 20 14 20 14 0 15 -18 0 -18 1 1 9 11 5 14 9 8 9 -9 1 -10 8 -3
27 7 19 7 31 -1 40 -8 10 -8 14 -1 14 6 0 9 7 6 15 -4 8 -11 12 -18 9 -6 -3
-4 0 4 8 16 14 23 48 10 48 -5 0 -11 -6 -13 -12 -4 -10 -6 -10 -6 0 -1 7 5 15
12 17 13 6 16 202 3 224 -4 6 -3 11 1 11 5 0 9 9 9 20 0 11 -4 20 -8 20 -4 0
-8 -5 -8 -12 0 -6 -3 -8 -7 -4 -5 4 1 14 11 22 20 14 20 14 0 15 -18 0 -18 1
1 9 11 5 14 9 8 9 -9 1 -10 8 -3 27 7 19 7 31 -1 40 -8 10 -8 14 -1 14 6 0 9
7 6 15 -4 8 -11 12 -18 9 -6 -3 -4 0 4 8 16 14 23 48 10 48 -5 0 -11 -6 -13
-12 -4 -10 -6 -10 -6 0 -1 7 5 15 12 17 16 7 16 207 -1 213 -6 2 -8 10 -5 19
4 10 2 14 -5 9 -6 -3 -13 -2 -16 3 -4 5 -1 13 5 17 8 5 9 3 4 -6 -5 -8 -4 -11
3 -7 13 9 4 47 -12 47 -6 0 -4 5 4 10 12 8 12 10 1 10 -11 0 -11 3 0 17 8 9 9
14 3 10 -7 -4 -14 0 -17 8 -4 8 -1 13 6 11 7 -1 8 -1 4 2 -4 2 -2 11 5 20 11
15 11 15 -2 6 -8 -6 -24 -14 -35 -17 -20 -7 -20 -7 -1 8 18 14 15 20 -9 15 -5
-1 -4 4 3 11 15 16 16 33 0 23 -7 -5 -8 -3 -2 7 14 22 13 36 -2 36 -11 0 -11
-4 -2 -16 7 -9 1 -6 -12 6 -26 24 -38 72 -13 51 11 -8 12 -7 7 5 -3 9 -14 19
-25 22 -25 8 -25 25 1 18 11 -3 20 -1 20 5 0 5 -6 10 -12 9 -7 0 -22 1 -33 2
-17 1 -18 3 -5 11 11 7 11 10 2 10 -8 0 -10 5 -6 13 5 7 0 6 -11 -3 -10 -8
-16 -10 -12 -3 4 7 0 17 -10 23 -15 9 -14 10 7 5 21 -5 22 -4 8 5 -11 6 -15
17 -11 28 4 11 -1 8 -14 -7 -15 -18 -20 -20 -20 -8 0 9 4 14 9 11 4 -3 8 -1 8
4 0 6 -7 13 -16 16 -9 3 -12 11 -8 18 5 7 2 9 -8 5 -9 -3 -24 1 -35 9 -17 14
-16 14 5 4 18 -9 22 -8 22 5 0 8 -3 14 -7 13 -5 -1 -18 1 -30 6 -23 7 -27 17
-23 46 1 11 -3 10 -20 -5 l-23 -20 11 21 c9 18 8 25 -5 35 -9 8 -14 9 -10 3 4
-7 0 -14 -8 -18 -8 -3 -17 0 -21 6 -4 7 -3 8 4 4 7 -4 12 -1 12 9 0 9 -4 14
-9 10 -5 -3 -12 -1 -16 4 -3 5 -14 8 -25 6 -12 -2 -18 0 -15 6 4 5 10 7 15 4
5 -3 11 -1 15 4 3 6 -6 8 -21 5 -24 -4 -26 -3 -14 11 11 13 10 14 -5 9 -11 -5
-16 -4 -12 3 3 5 0 10 -8 10 -8 0 -12 -3 -10 -7 2 -4 -2 -7 -10 -7 -11 0 -12
5 -3 21 6 12 7 18 3 13 -5 -4 -17 0 -27 10 -10 9 -18 13 -18 8 0 -4 7 -13 16
-19 14 -11 14 -13 -3 -26 -13 -10 -15 -10 -6 -1 17 20 -29 60 -61 54 -13 -3
-26 0 -30 5 -3 6 2 9 11 8 10 -2 12 -1 6 1 -7 3 -13 8 -13 12 0 4 -11 7 -24 7
-14 0 -22 -4 -20 -8 8 -13 -6 -9 -22 6 -11 11 -11 16 -1 20 6 2 1 4 -13 3 -18
-1 -24 2 -22 13 3 12 1 13 -9 3 -14 -14 -33 -18 -25 -5 2 4 -4 8 -14 8 -10 0
-16 -4 -14 -8 3 -4 1 -8 -5 -8 -5 0 -13 5 -16 11 -5 7 -14 4 -26 -7 -18 -16
-19 -16 -13 -1 6 17 -10 24 -20 9 -7 -11 -52 -9 -63 2 -4 5 -3 6 3 3 6 -3 11
0 11 7 0 11 -4 12 -18 3 -10 -6 -15 -15 -12 -20 3 -5 -4 -3 -15 4 -17 10 -23
10 -36 0 -10 -8 -16 -9 -16 -3 0 6 8 16 18 22 16 11 16 11 -1 6 -10 -3 -21 -6
-23 -6 -2 0 -4 -8 -4 -17 0 -15 -2 -16 -9 -3 -6 8 -7 18 -5 22 3 4 -2 5 -10 2
-9 -3 -16 -10 -16 -16 0 -5 5 -6 12 -2 7 4 8 3 4 -5 -6 -9 -11 -9 -22 0 -7 6
-11 16 -8 21 3 5 -3 4 -14 -3 -12 -7 -18 -17 -15 -23 4 -5 -4 -2 -16 7 -25 17
-55 12 -44 -7 4 -6 -1 -5 -10 3 -12 9 -17 10 -17 2 0 -8 -4 -8 -14 1 -11 11
-11 15 3 25 14 11 13 12 -5 8 -18 -3 -21 0 -16 17 3 14 1 19 -6 14 -11 -6 -16
6 -13 27 0 4 -5 7 -12 7 -8 0 -7 4 3 10 13 9 13 10 0 10 -13 0 -13 1 0 10 13
9 13 10 0 11 -8 1 -19 1 -23 0 -5 -1 -6 3 -2 9 4 6 1 18 -6 26 -10 12 -9 13 7
7 16 -6 17 -5 4 9 -11 11 -19 13 -28 6 -9 -8 -11 -7 -6 6 3 9 10 16 15 16 6 0
4 6 -3 14 -7 8 -16 12 -19 10 -4 -2 -9 6 -12 17 -4 13 -10 19 -19 14 -7 -3 -6
0 3 7 15 12 15 15 0 28 -8 8 -21 14 -28 12 -7 -2 -13 4 -13 13 0 9 4 14 8 11
5 -3 9 1 9 9 0 11 -4 12 -13 4 -9 -7 -18 -7 -31 1 -17 11 -17 11 2 6 17 -5 16
-3 -5 14 -14 11 -21 20 -15 20 21 0 -41 34 -64 35 -18 0 -25 6 -26 22 -1 13
-5 26 -10 30 -4 5 -5 0 -2 -10 5 -14 3 -16 -12 -8 -10 6 -21 7 -25 3 -4 -3 -4
1 -1 10 5 13 2 15 -16 11 -18 -5 -21 -3 -16 10 4 12 2 14 -10 10 -10 -4 -14
-2 -10 4 3 5 0 10 -8 10 -8 0 -12 -4 -9 -9 3 -4 -2 -5 -10 -2 -9 3 -13 10 -10
15 3 5 -6 5 -20 -1 -16 -6 -27 -6 -31 1 -4 5 -11 6 -17 3 -6 -4 -8 -2 -4 4 3
6 2 13 -4 17 -5 3 -10 1 -10 -5 0 -6 -5 -8 -12 -4 -19 12 -132 12 -147 0 -11
-8 -13 -8 -7 1 5 9 0 12 -18 11 -15 -1 -26 -7 -26 -13 0 -5 -4 -4 -8 3 -8 12
-37 12 -58 -1 -6 -3 -14 -3 -18 0 -13 13 -46 10 -46 -5 0 -9 -3 -12 -7 -9 -3
4 -13 -1 -21 -11 -12 -14 -12 -13 1 8 13 24 13 26 -3 26 -10 0 -16 -5 -13 -12z
m683 -148 c0 -6 -5 -3 -11 7 -6 9 -15 14 -21 11 -7 -4 -8 -2 -4 5 9 14 36 -3
36 -23z m94 -91 c3 -8 1 -15 -4 -15 -6 0 -10 7 -10 15 0 8 2 15 4 15 2 0 6 -7
10 -15z m-5434 -204 c0 -5 -7 -12 -16 -15 -14 -5 -15 -4 -4 9 14 17 20 19 20
6z m111 -18 c13 -16 12 -17 -3 -4 -14 11 -18 11 -18 1 0 -8 -3 -11 -6 -7 -5 5
3 27 10 27 2 0 10 -8 17 -17z m109 -3 c0 -5 -5 -10 -11 -10 -5 0 -7 5 -4 10 3
6 8 10 11 10 2 0 4 -4 4 -10z m1644 -78 c3 -5 -1 -9 -9 -9 -8 0 -12 4 -9 9 3
4 7 8 9 8 2 0 6 -4 9 -8z m320 0 c3 -5 -1 -9 -9 -9 -8 0 -12 4 -9 9 3 4 7 8 9
8 2 0 6 -4 9 -8z m1600 0 c3 -5 -1 -9 -9 -9 -8 0 -12 4 -9 9 3 4 7 8 9 8 2 0
6 -4 9 -8z m2236 -22 c0 -5 -5 -10 -11 -10 -5 0 -7 5 -4 10 3 6 8 10 11 10 2
0 4 -4 4 -10z m46 -11 c19 -22 19 -22 -3 -8 -13 8 -23 17 -23 21 0 12 6 9 26
-13z m148 -47 c3 -5 -1 -9 -9 -9 -8 0 -12 4 -9 9 3 4 7 8 9 8 2 0 6 -4 9 -8z
m-7971 -642 c-10 -11 -19 -20 -21 -20 -1 0 2 9 8 20 6 11 15 20 20 20 6 0 2
-9 -7 -20z m-8 -40 c3 -5 1 -10 -4 -10 -6 0 -11 5 -11 10 0 6 2 10 4 10 3 0 8
-4 11 -10z m8519 -68 c2 -4 -4 -8 -14 -8 -10 0 -16 4 -14 8 3 4 9 8 14 8 5 0
11 -4 14 -8z m6 -2452 c0 -5 -2 -10 -4 -10 -3 0 -8 5 -11 10 -3 6 -1 10 4 10
6 0 11 -4 11 -10z m-8500 -4734 c0 -2 -9 -6 -20 -9 -11 -3 -18 -1 -14 4 5 9
34 13 34 5z m200 -428 c0 -4 -4 -8 -9 -8 -6 0 -12 4 -15 8 -3 5 1 9 9 9 8 0
15 -4 15 -9z m245 -208 c3 -5 2 -10 -4 -10 -5 0 -13 5 -16 10 -3 6 -2 10 4 10
5 0 13 -4 16 -10z m7535 -14 c0 -2 -8 -10 -17 -17 -16 -13 -17 -12 -4 4 13 16
21 21 21 13z m-7455 -16 c3 -6 -1 -7 -9 -4 -18 7 -21 14 -7 14 6 0 13 -4 16
-10z m165 -60 c0 -5 -2 -10 -4 -10 -3 0 -8 5 -11 10 -3 6 -1 10 4 10 6 0 11
-4 11 -10z"/>
<path d="M7187 9305 c3 -8 9 -12 14 -9 12 7 11 11 -5 17 -10 4 -13 1 -9 -8z"/>
<path d="M6740 9289 c0 -5 5 -7 10 -4 6 3 10 8 10 11 0 2 -4 4 -10 4 -5 0 -10
-5 -10 -11z"/>
<path d="M7396 9217 c3 -10 9 -15 12 -12 3 3 0 11 -7 18 -10 9 -11 8 -5 -6z"/>
<path d="M7630 8919 c0 -5 5 -7 10 -4 6 3 10 8 10 11 0 2 -4 4 -10 4 -5 0 -10
-5 -10 -11z"/>
<path d="M6109 8893 c-13 -16 -12 -17 4 -4 9 7 17 15 17 17 0 8 -8 3 -21 -13z"/>
<path d="M4136 8773 c-6 -14 -5 -15 5 -6 7 7 10 15 7 18 -3 3 -9 -2 -12 -12z"/>
<path d="M4456 8773 c-6 -14 -5 -15 5 -6 7 7 10 15 7 18 -3 3 -9 -2 -12 -12z"/>
<path d="M7990 8772 c0 -5 7 -9 15 -9 8 0 12 4 9 9 -3 4 -9 8 -15 8 -5 0 -9
-4 -9 -8z"/>
<path d="M8580 8521 c0 -10 19 -25 25 -20 1 2 -3 10 -11 17 -8 7 -14 8 -14 3z"/>
<path d="M390 8266 c0 -2 8 -10 18 -17 15 -13 16 -12 3 4 -13 16 -21 21 -21
13z"/>
<path d="M8765 8240 c3 -5 8 -10 11 -10 2 0 4 5 4 10 0 6 -5 10 -11 10 -5 0
-7 -4 -4 -10z"/>
<path d="M8860 805 c-9 -11 -9 -15 -1 -15 7 0 9 -5 5 -12 -4 -7 -3 -10 1 -5 8
6 16 47 10 47 -2 0 -8 -7 -15 -15z"/>
<path d="M8615 280 c3 -5 8 -10 11 -10 2 0 4 5 4 10 0 6 -5 10 -11 10 -5 0 -7
-4 -4 -10z"/>
<path d="M913 45 c0 -8 4 -12 9 -9 5 3 6 10 3 15 -9 13 -12 11 -12 -6z"/>
<path d="M8190 36 c0 -2 7 -7 16 -10 8 -3 12 -2 9 4 -6 10 -25 14 -25 6z"/>
</g>
</svg>
