<svg width="304" height="93" viewBox="0 0 304 93" fill="none" xmlns="http://www.w3.org/2000/svg">
<path d="M76.5539 5.65137H14.8392C8.74203 5.65137 3.79929 10.5941 3.79929 16.6913V80.7822C3.79929 86.8794 8.74203 91.8221 14.8392 91.8221H76.5539C82.6511 91.8221 87.5939 86.8794 87.5939 80.7822V16.6913C87.5939 10.5941 82.6511 5.65137 76.5539 5.65137Z" fill="white"/>
<path d="M75.0247 14.0249L75.3239 6.24398C75.3239 6.24398 74.1269 0.857186 72.3313 0.857186C68.4408 0.857186 62.7548 -2.13547 56.2667 11.1699C49.7786 24.4753 75.0247 14.0249 75.0247 14.0249Z" fill="white"/>
<path d="M29.2369 10.7327C29.2369 10.7327 26.5435 5.94444 24.8437 5.24415C23.0481 4.49898 15.1714 3.84957 14.0013 11.5287C12.6696 20.2464 26.5435 16.4188 29.2369 10.7327Z" fill="white"/>
<path d="M22.653 5.48658C23.2601 5.66678 23.8363 5.93822 24.3618 6.2916C24.7478 6.55874 25.1175 6.84854 25.4691 7.15947C26.0778 7.69983 26.6441 8.28612 27.163 8.91318C29.8085 12.0615 31.8345 16.5145 33.699 20.6235C36.2726 26.3095 38.3286 32.229 40.1661 37.7984C42.2031 37.4183 44.2708 37.227 46.343 37.2268C46.8098 37.2268 47.2767 37.2268 47.7375 37.2567L47.8991 36.6282C50.2574 27.3749 52.9059 16.7929 57.4577 8.94909L57.4757 8.91318H28.9107C28.4351 8.29707 27.9213 7.71135 27.3725 7.15947H58.5381C58.8942 6.59685 59.2713 6.03423 59.6753 5.48658H25.3015C23.467 4.40622 20.5552 4.11893 18.577 5.45067C19.9088 5.05529 21.3284 5.06779 22.653 5.48658Z" fill="#63BC47"/>
<path d="M78.55 5.48655H75.9883C75.1803 2.0809 72.3971 -0.552643 67.941 0.0997581C66.8407 0.260643 65.7819 0.632563 64.8227 1.19507C65.422 0.959105 66.0466 0.793404 66.6841 0.701286C70.8888 0.0788124 73.5852 2.37119 74.5638 5.48955C74.7366 6.0341 74.8549 6.59449 74.9169 7.16245C74.9169 7.26719 74.9409 7.37492 74.9498 7.47967C74.9887 7.96149 75.0007 8.44031 74.9947 8.91614C74.9468 12.1542 73.9114 15.2007 72.9328 17.939C69.9611 26.2766 65.7145 33.6326 61.4499 40.794C64.2018 42.1738 66.7473 43.9315 69.0124 46.0162L66.1215 48.3056L65.1219 49.1076C59.4409 44.1356 52.0175 41.624 44.4847 42.1252C36.9519 42.6263 29.9267 46.0993 24.9544 51.7801C24.8317 51.9177 24.712 52.0584 24.5923 52.202C24.3259 52.5193 24.0656 52.8425 23.8112 53.1746L19.9327 50.1131C21.8283 47.6571 24.062 45.4818 26.5674 43.652C23.4431 39.1839 20.214 34.1712 17.4907 28.2996C14.8422 22.6136 12.1847 14.2132 14.8721 8.91614H12.7084C11.1757 8.91852 9.70647 9.52844 8.62268 10.6122C7.53889 11.696 6.92897 13.1653 6.9266 14.698V82.8768C6.92897 84.4095 7.53889 85.8788 8.62268 86.9626C9.70647 88.0464 11.1757 88.6563 12.7084 88.6587H78.547C80.0805 88.6579 81.551 88.0486 82.6356 86.9645C83.7202 85.8805 84.3302 84.4103 84.3318 82.8768V14.695C84.3295 13.1618 83.7191 11.6921 82.6347 10.6082C81.5503 9.52431 80.0802 8.91474 78.547 8.91316H76.2217C76.2546 8.32905 76.2546 7.74355 76.2217 7.15945H78.55C79.5404 7.15866 80.5212 7.35295 81.4365 7.73122C82.3518 8.10949 83.1836 8.66433 83.8844 9.36407C84.5853 10.0638 85.1414 10.8947 85.5211 11.8094C85.9009 12.7241 86.0967 13.7046 86.0975 14.695V82.8768C86.0951 84.8746 85.3004 86.79 83.8878 88.2026C82.4751 89.6153 80.5598 90.41 78.562 90.4124H12.7234C10.7263 90.4084 8.81225 89.6131 7.4004 88.2007C5.98854 86.7883 5.19402 84.8739 5.19085 82.8768V14.695C5.19323 12.6977 5.9875 10.7828 7.39952 9.37024C8.81155 7.95765 10.7261 7.16262 12.7234 7.15945H16.0692C16.3653 6.83433 16.6876 6.53406 17.0328 6.26166C17.4624 5.92409 17.9475 5.66384 18.4663 5.49254H12.7084C10.268 5.49491 7.92805 6.46503 6.20182 8.19013C4.47559 9.91524 3.50396 12.2545 3.5 14.695V82.8768C3.50317 85.3181 4.47435 87.6584 6.20058 89.3847C7.92681 91.1109 10.2672 92.0821 12.7084 92.0853H78.547C80.9885 92.0821 83.3292 91.111 85.0559 89.3848C86.7826 87.6587 87.7545 85.3184 87.7584 82.8768V14.695C87.7553 12.2537 86.7841 9.91337 85.0579 8.18714C83.3316 6.46091 80.9913 5.48972 78.55 5.48655ZM42.677 47.2821C44.9889 47.2821 47.2489 47.9677 49.1712 49.2521C51.0935 50.5365 52.5918 52.3622 53.4765 54.4981C54.3612 56.6341 54.5927 58.9844 54.1417 61.2519C53.6907 63.5194 52.5774 65.6023 50.9426 67.237C49.3078 68.8718 47.2249 69.9851 44.9574 70.4362C42.6899 70.8872 40.3396 70.6557 38.2036 69.771C36.0677 68.8862 34.2421 67.388 32.9576 65.4657C31.6732 63.5434 30.9876 61.2834 30.9876 58.9714C30.9876 55.8712 32.2192 52.898 34.4113 50.7058C36.6035 48.5136 39.5767 47.2821 42.677 47.2821ZM47.8213 78.1065C37.5056 80.5874 27.4144 78.3609 20.8305 72.9711L24.3289 70.4124C29.9132 74.8565 38.3555 76.676 46.9834 74.6021C55.6112 72.5282 62.246 67.1205 65.2177 60.6593L69.4433 61.4524C65.9748 69.1734 58.0533 75.6555 47.8273 78.1155L47.8213 78.1065Z" fill="#63BC47"/>
<path d="M33.7768 58.9712C33.7755 60.9324 34.4217 62.8393 35.6153 64.3956C36.8089 65.9518 38.4829 67.0704 40.3774 67.5777C42.272 68.0849 44.281 67.9524 46.0925 67.2006C47.904 66.4489 49.4165 65.12 50.3953 63.4204C51.3741 61.7209 51.7642 59.7456 51.5052 57.8016C51.2462 55.8575 50.3524 54.0533 48.9628 52.6693C47.5732 51.2852 45.7655 50.3988 43.8204 50.1476C41.8752 49.8964 39.9016 50.2945 38.206 51.28C39.1597 51.0258 40.1691 51.0764 41.0926 51.4247C42.0161 51.773 42.8075 52.4016 43.3558 53.2224C43.9041 54.0431 44.1817 55.0149 44.1499 56.0014C44.1181 56.9879 43.7783 57.9397 43.1783 58.7234C42.5782 59.5071 41.748 60.0834 40.8039 60.3714C39.8598 60.6595 38.8493 60.6449 37.9139 60.3297C36.9786 60.0145 36.1653 59.4145 35.5882 58.6138C35.011 57.8131 34.6989 56.8518 34.6956 55.8648C34.693 55.4981 34.7342 55.1324 34.8183 54.7755C34.1291 56.0662 33.7713 57.5079 33.7768 58.9712Z" fill="#63BC47"/>
<path d="M106.284 57.6026C94.1782 57.6026 94.1782 77.7611 106.284 77.7611C108.346 77.7704 110.378 77.2621 112.194 76.2828L113.008 83.124C110.878 84.0086 108.599 84.4798 106.292 84.5126C85.5503 84.5126 85.5922 50.9469 106.292 50.9469C108.374 50.9211 110.435 51.3629 112.323 52.2397L111.595 59.036C109.998 58.0602 108.155 57.5627 106.284 57.6026Z" fill="white"/>
<path d="M126.996 50.1599H127.636L140.505 84.4199H133.622L132.383 80.8617H122.249L121.052 84.4199H114.121L126.996 50.1599ZM130.117 74.6638L127.337 66.0659L124.464 74.6638H130.117Z" fill="white"/>
<path d="M167.19 50.8513H169.115V84.42H162.914L162.956 65.9732L155.13 74.8495L147.304 65.9732V84.42H141.1V50.8513H143.069L155.13 65.3717L167.19 50.8513Z" fill="white"/>
<path d="M171.673 75.358C174.165 77.2655 177.266 78.2015 180.397 77.9915C182.192 77.8538 183.734 76.4682 183.563 74.6637C183.434 72.7693 182.109 71.9373 180.397 71.2879C175.609 69.3936 171.329 66.7571 171.329 61.2087C171.329 55.6603 174.878 51.4077 179.969 51.1294C181.552 51.0366 183.65 51.0366 187.582 52.518L186.813 58.8983C183.434 57.417 181.51 57.4648 180.57 57.5097C178.389 57.6504 177.404 59.3592 177.533 61.2087C177.661 63.0581 179.2 63.9021 180.953 64.5395C185.703 66.4338 189.809 69.3936 189.809 74.6637C189.809 80.1672 186.298 84.3749 180.57 84.6981C178.859 84.8357 175.052 84.6053 170.901 82.3039L171.673 75.358Z" fill="white"/>
<path d="M114.684 46.6347L105.61 29.4538H101.277V46.6347H92.278V1.63403H110.027C126.074 1.63403 127.648 24.2286 114.433 28.0682L124.88 46.6227L114.684 46.6347ZM101.277 20.7033H109.201C115.306 20.7033 115.306 10.636 109.201 10.636H101.271L101.277 20.7033Z" fill="white"/>
<path d="M143.976 0H144.922L163.862 46.6347H153.732L151.907 41.7866H136.991L135.238 46.6347H125.036L143.976 0ZM148.57 33.3532L144.482 21.6489L140.265 33.3532H148.57Z" fill="white"/>
<path d="M164.003 1.57397H181.812C189.806 1.57397 194.78 7.29894 194.588 15.2295C194.462 18.6262 193.268 22.1515 190.437 24.1027C191.881 25.1159 193.059 26.4636 193.869 28.0306C194.68 29.5977 195.099 31.3375 195.091 33.1017C195.091 40.6552 189.106 46.6345 181.809 46.6345H164.003V1.57397ZM173.068 19.6347H181.058C183.641 19.6347 185.212 17.5578 185.212 15.1008C185.212 12.587 183.641 10.5729 181.058 10.5729H173.068V19.6347ZM173.068 37.6356H181.058C181.655 37.6416 182.248 37.5284 182.8 37.3027C183.353 37.0769 183.855 36.7432 184.278 36.321C184.7 35.8988 185.034 35.3966 185.259 34.8438C185.485 34.291 185.598 33.6987 185.592 33.1017C185.598 32.5076 185.485 31.9184 185.258 31.3692C185.032 30.8199 184.697 30.322 184.274 29.905C183.851 29.488 183.348 29.1605 182.795 28.942C182.243 28.7236 181.652 28.6187 181.058 28.6336H173.068V37.6356Z" fill="white"/>
<path d="M197.955 1.57397H215.767C223.761 1.57397 228.731 7.29894 228.543 15.2295C228.417 18.6262 227.22 22.1515 224.389 24.1027C225.835 25.1149 227.014 26.4622 227.825 28.0293C228.637 29.5965 229.056 31.3369 229.049 33.1017C229.049 40.6552 223.063 46.6345 215.767 46.6345H197.955V1.57397ZM207.02 19.6347H215.013C217.593 19.6347 219.164 17.5578 219.164 15.1008C219.164 12.587 217.593 10.5729 215.013 10.5729H207.02V19.6347ZM207.02 37.6356H215.013C215.61 37.6412 216.202 37.5277 216.754 37.3018C217.307 37.0759 217.809 36.7421 218.23 36.3199C218.652 35.8978 218.986 35.3957 219.211 34.8431C219.437 34.2905 219.55 33.6985 219.544 33.1017C219.551 32.5078 219.437 31.9186 219.211 31.3694C218.985 30.8202 218.651 30.3222 218.228 29.9051C217.805 29.4881 217.302 29.1605 216.75 28.9421C216.198 28.7236 215.607 28.6187 215.013 28.6336H207.02V37.6356Z" fill="white"/>
<path d="M240.657 1.63403H231.655V46.6347H240.657V1.63403Z" fill="white"/>
<path d="M254.878 46.6349V10.6331H243.674V1.69702H275.079V10.6331H263.877V46.6349H254.878Z" fill="white"/>
<path d="M276.829 34.2988C280.579 36.9164 285.107 38.1826 289.671 37.89C292.31 37.7014 294.576 35.8161 294.327 33.3591C294.148 30.7734 292.185 29.6272 289.659 28.7594C282.608 26.1797 276.315 22.5915 276.315 15.041C276.315 7.49051 281.537 1.69671 289.027 1.31964C291.356 1.19395 294.441 1.19395 300.229 3.20801L299.098 11.8867C294.124 9.87267 291.293 9.93851 289.907 9.99836C286.699 10.1869 285.251 12.5182 285.442 15.035C285.691 17.5518 287.893 18.6831 290.473 19.5659C297.461 22.1456 303.5 26.1737 303.5 33.3471C303.5 40.8288 298.341 46.5657 289.907 47.0056C287.39 47.1942 281.788 46.8799 275.686 43.7317L276.829 34.2988Z" fill="white"/>
<path d="M205.864 82.816C205.864 84.6116 203.189 84.6116 203.189 82.816C203.189 81.0204 205.864 81.0384 205.864 82.816Z" fill="white"/>
<path d="M202.486 79.6767C203.176 78.6875 203.51 77.4929 203.431 76.2891C203.384 75.5918 202.884 74.9932 202.234 75.0591C201.585 75.1249 201.253 75.6247 201.037 76.2891C200.355 78.1475 199.409 79.8084 197.416 79.8084C195.423 79.8084 193.894 78.4318 193.795 76.4537C193.762 75.8402 193.762 75.0261 194.292 73.4969L196.584 73.7962C196.054 75.1099 196.069 75.8581 196.087 76.2232C196.086 76.3916 196.12 76.5585 196.188 76.7125C196.256 76.8665 196.357 77.0041 196.483 77.1159C196.609 77.2277 196.757 77.3111 196.918 77.3605C197.079 77.4099 197.249 77.4242 197.416 77.4023C198.081 77.3335 198.38 76.7529 198.613 76.0736C199.296 74.2301 200.358 72.635 202.252 72.635C204.227 72.635 205.739 73.9967 205.843 76.2262C205.887 77.5316 205.585 78.8254 204.967 79.976L202.486 79.6767Z" fill="white"/>
<path d="M205.742 70.8065H193.867V64.8631H196.24V68.4334H198.616V65.312H200.989V68.4334H203.366V64.6626H205.742V70.8065Z" fill="white"/>
<path d="M199.412 60.0956L193.849 63.3157V60.4517L197.141 58.6561L193.849 56.8785V54.0714L199.412 57.3124L205.742 53.5686V56.3757L201.675 58.6561L205.745 60.9485V63.8394L199.412 60.0956Z" fill="white"/>
</svg>
